# xmcd
#
# Track frame offsets:
#	150
#	10893
#	27045
#	39404
#	66866
#	79145
#	92987
#	103213
#	119292
#	132980
#
# Disc length: 1927
#
# Revision: 2
# Processed by: cddbd v1.5.1PL0 Copyright (c) Steve Scherf et al.
# Submitted via: dBpowerAMP V4.0
# Normalized: r0:TDELIM( - ),TSWAP
#
DISCID=7f07850a
DTITLE=Various Artist - Best Of Country
DYEAR=1900
DGENRE=Country
TTITLE0=Patsy Cline - Honky Tonk Merry Go Round
TTITLE1=Willie Nelson - You Were Always On My Mind
TTITLE2=Johnny Cash - Folsom Prison Blues
TTITLE3=Johnny Cash - Mexicali Rose
TTITLE4=Loretta Lynn - Me and Bobby McGee
TTITLE5=Porter Wagoner - Memory Garden
TTITLE6=Willie Nelson - On The Road Again
TTITLE7=Anne Murray - Both Sides Now
TTITLE8=Kenny Rogers - Ruby, Don't Take Your Love to Town
TTITLE9=Jim Reeves - Mexican Joe
EXTD=
EXTT0=
EXTT1=
EXTT2=
EXTT3=
EXTT4=
EXTT5=
EXTT6=
EXTT7=
EXTT8=
EXTT9=
PLAYORDER=
